# xmcd CD database file
#
# Track frame offsets:
#	150
#	17720
#	29180
#	46563
#	60988
#	74628
#	86848
#	102545
#	115545
#	128833
#	144850
#	161708
#
# Disc length: 2430 seconds
#
# Revision: 2
# Processed by: cddbd v1.5PL3 Copyright (c) Steve Scherf et al.
# Submitted via: CDex 1.40Release
#
DISCID=a1097c0c
DTITLE=Ricky Skaggs - My Father's Son
DYEAR=1991
DGENRE=Country
TTITLE0=Life's Too Long (To Live Like This)
TTITLE1=Only Daddy That'll Walk The Line
TTITLE2=Same Ol' Love
TTITLE3=From The Word Love
TTITLE4=You Don't Count The Cost
TTITLE5=My Father's Son
TTITLE6=Simple Life
TTITLE7=Hold On Tight (Let It Go)
TTITLE8=You Can't Take It With You When You Go
TTITLE9=Father Knows Best
TTITLE10=Give Us A Happy Home
TTITLE11=Somebody's Prayin'
EXTD=YEAR: 1991 ID3G: 2
EXTT0=
EXTT1=
EXTT2=
EXTT3=
EXTT4=
EXTT5=
EXTT6=
EXTT7=
EXTT8=
EXTT9=
EXTT10=
EXTT11=
PLAYORDER=
